<?xml version="1.0" encoding="utf-8"?>
<!-- Generator: Adobe Illustrator 17.1.0, SVG Export Plug-In . SVG Version: 6.00 Build 0)  -->
<!DOCTYPE svg PUBLIC "-//W3C//DTD SVG 1.1//EN" "http://www.w3.org/Graphics/SVG/1.1/DTD/svg11.dtd">
<svg version="1.1" xmlns="http://www.w3.org/2000/svg" xmlns:xlink="http://www.w3.org/1999/xlink" x="0px" y="0px"
	 viewBox="0 0 296.1 131" enable-background="new 0 0 296.1 131" xml:space="preserve">
<g id="Layer_2" display="none">
	<rect display="inline" fill="#FFFFFF" width="296" height="131"/>
</g>
<g id="Layer_1">
	<g>
		<path d="M16.4,33.6c-1.6,0-3.1-0.2-4.5-0.6c-1.4-0.4-2.6-1-3.6-1.9c-1-0.9-1.8-2.1-2.4-3.5c-0.6-1.5-0.9-3.3-0.9-5.4
			c0-3.3,0.9-5.7,2.7-7.3c1.8-1.6,4.2-2.4,7.1-2.4c1.6,0,3.2,0.1,4.8,0.4c0.3,0,0.7-0.1,1.1-0.1c1.7,0,3.4,0.1,5,0.4
			c1.7,0.2,3.4,0.4,5,0.4c0.3,0,0.6,0,0.9,0.1c0.3,0,0.6,0.2,0.6,0.5l1.2,3.5c0,0.1,0.1,0.2,0.1,0.4c0,0.4-0.2,0.6-0.6,0.6h-1.2
			c-0.4,0-0.7,0-1.1-0.1c-0.3-0.1-0.6-0.3-0.9-0.6c-1.1-1.2-2.3-2-3.7-2.4c-1.4-0.4-2.9-0.6-4.5-0.6c-0.5,0-1,0-1.4,0.1v0.2
			c-0.1,0-0.3-0.1-0.5-0.1c-0.1,0-0.3,0.1-0.5,0.1c-0.8,0.2-1.5,0.7-2.2,1.3c-0.6,0.6-1.1,1.4-1.5,2.5c-0.4,1.1-0.6,2.4-0.6,4
			c0,1.9,0.3,3.4,0.8,4.5c0.5,1.1,1.2,2,1.9,2.7c0.8,0.6,1.6,1.1,2.6,1.3c0.9,0.2,1.8,0.3,2.6,0.3h0.9c1.1-0.1,2.3-0.1,3.5-0.1
			c1.2,0,2.3,0.1,3.2,0.4c1.7,0,3.3,0.3,4.9,0.8c1.6,0.5,3.1,1.4,4.3,2.6c1.2,1.2,2.3,2.8,3,4.9c0.8,2,1.2,4.4,1.2,7.3
			c0,12.6-5.9,18.9-17.7,18.9c-1,0-1.9,0-2.8-0.1l0.1-0.5c-1.5,0.3-3.1,0.4-4.8,0.4c-3.6,0-6.7-0.7-9.1-2.1
			c-2.4-1.4-4.2-3.9-5.5-7.3c0,0,0-0.1-0.1-0.1v-0.1c0-0.3,0.2-0.6,0.6-0.9c0.4-0.2,0.7-0.4,1.1-0.4c0.5,0,0.9,0.2,1,0.6
			c1.1,3.1,2.7,5.2,4.9,6.5c2.2,1.2,4.6,1.8,7.2,1.8c4.2,0,7.4-1.5,9.5-4.4c2.2-2.9,3.2-6.9,3.2-11.9c0-1.3,0-2.8-0.1-4.5
			c-0.1-1.6-0.4-3.2-1-4.6c-0.6-1.4-1.5-2.6-2.8-3.6c-1.2-1-3-1.4-5.3-1.4c-0.9,0-1.8,0-2.6-0.1L19.6,34
			C18.7,33.7,17.6,33.6,16.4,33.6z M14.6,14.6c-0.4,0-0.7,0.1-1.1,0.2c-0.8,0.2-1.5,0.7-2.2,1.3c-0.6,0.6-1.1,1.4-1.5,2.5
			c-0.4,1.1-0.6,2.4-0.6,4c0,1.9,0.3,3.4,0.8,4.5c0.5,1.1,1.1,2,1.9,2.7c0.5,0.4,1.1,0.8,1.7,1c-0.7-0.8-1.3-1.7-1.7-2.9
			c-0.6-1.5-0.9-3.3-0.9-5.4c0-3.3,0.9-5.7,2.7-7.3C14,15,14.2,14.8,14.6,14.6z M28.1,64.3c3.3-0.4,5.9-1.8,7.7-4.3
			c2.1-2.9,3.2-6.9,3.2-11.9c0-1.3,0-2.8-0.1-4.5c-0.1-1.6-0.4-3.2-1-4.6c-0.6-1.4-1.5-2.6-2.7-3.6c-1-0.7-2.3-1.2-3.8-1.4
			c0.3,0.3,0.7,0.6,1,0.9c1.2,1.2,2.3,2.8,3,4.8c0.8,2,1.2,4.4,1.2,7.3C36.5,55.9,33.7,61.6,28.1,64.3z"/>
		<path d="M67.4,23.6c1.2-0.2,2.5-0.3,3.8-0.3c6,0,10.3,1.8,13.2,5.3c2.9,3.5,4.3,8.8,4.3,16.1c0,7.1-1.4,12.5-4.3,16.1
			c-2.8,3.5-7.2,5.3-13.2,5.3c-1.2,0-2.4-0.1-3.5-0.2c-1.1,0.2-2.3,0.3-3.5,0.3c-6,0-10.3-1.8-13.2-5.3c-2.8-3.6-4.2-8.9-4.2-16
			c0-7.2,1.4-12.6,4.2-16.1c2.8-3.5,7.2-5.2,13.2-5.2C65.3,23.4,66.3,23.5,67.4,23.6z M62.4,25c-3.4,0.4-6,2-8,4.9
			c-2.4,3.3-3.5,8.2-3.5,14.8c0,6.3,1.2,11.2,3.5,14.6c2,3.1,4.9,4.8,8.6,5.1c-2-0.9-3.6-2.1-4.9-3.7c-2.8-3.6-4.2-9-4.2-16.1
			c0-7.2,1.4-12.6,4.2-16.1C59.1,27.1,60.6,25.9,62.4,25z M67.7,25.3L67.7,25.3h-0.2c-2.5,0.8-4.6,2.3-6.2,4.5
			c-2.3,3.3-3.5,8.2-3.5,14.8c0,6.3,1.1,11.2,3.4,14.7c2.3,3.4,5.6,5.1,9.9,5.1c4.3,0,7.5-1.7,9.8-5.1c2.3-3.4,3.5-8.3,3.5-14.7
			c0-6.6-1.1-11.5-3.4-14.8c-2.3-3.3-5.6-4.9-9.8-4.9C69.9,24.9,68.8,25,67.7,25.3z"/>
		<path d="M111.9,23.5c1-0.1,2.1-0.2,3.2-0.2c1.6,0,3.3,0.1,5,0.3c1.7,0.2,3.4,0.3,5,0.3c0.3,0,0.6,0,0.9,0.1c0.3,0,0.6,0.2,0.6,0.4
			l1.2,2.7c0,0.1,0.1,0.2,0.1,0.4c0,0.3-0.2,0.4-0.6,0.4h-1.2c-0.3,0-0.7,0-1.1-0.1c-0.3-0.1-0.6-0.3-0.9-0.5
			c-1.1-1-2.4-1.6-4.2-1.9c-1.7-0.3-3.4-0.5-5-0.5c-4.2,0-7.4,1.7-9.8,5c-2.3,3.3-3.5,8.2-3.5,14.8c0,6.3,1.1,11.2,3.4,14.7
			c2.3,3.4,5.6,5.1,9.9,5.1c2.6,0,5-0.5,7.1-1.4c2.2-1,3.9-2.7,5-5.2c0.1-0.3,0.5-0.5,1-0.5c0.3,0,0.7,0.1,1.1,0.3
			c0.4,0.2,0.6,0.4,0.6,0.6c0,0,0,0.1-0.1,0.1v0.1c-1.2,2.7-3.1,4.6-5.5,5.8c-2.4,1.2-5.4,1.7-9.1,1.7c-1.5,0-2.9-0.1-4.2-0.3
			l0.1,0.3c-0.7,0-1.5,0.1-2.2,0.1c-6,0-10.3-1.8-13.2-5.3c-2.8-3.6-4.2-9-4.2-16.1c0-7.2,1.4-12.6,4.2-16.1
			c2.8-3.5,7.2-5.2,13.2-5.2C109.8,23.4,110.9,23.4,111.9,23.5z M106.1,25.3c-2.9,0.5-5.3,2.1-7.1,4.7c-2.4,3.3-3.5,8.2-3.5,14.8
			c0,6.3,1.2,11.2,3.5,14.6c1.9,2.9,4.4,4.6,7.7,5c-1.9-0.9-3.4-2.1-4.7-3.7c-2.8-3.6-4.2-9-4.2-16.1c0-7.2,1.4-12.6,4.2-16.1
			C103.1,27.2,104.5,26.1,106.1,25.3z"/>
		<path d="M134.1,61.7V27.3c0-0.2-0.1-0.6-0.3-1.1c-0.2-0.5-0.6-0.7-1.1-0.7c-0.2,0-0.3-0.1-0.4-0.3c0-0.2-0.1-0.3-0.1-0.5
			c0-0.6,0.5-0.9,1.5-0.9h4.6c0.7,0,1.2,0,1.5,0h4.6c1,0,1.4,0.3,1.4,1c0,0.3-0.1,0.5-0.3,0.5c-0.7,0-1.2,0.2-1.4,0.7
			c-0.2,0.5-0.3,0.9-0.3,1.3v15.3c0,0.2,0,0.3,0.1,0.3c0.5-0.7,0.9-1.2,1.1-1.5c0.9-1.9,2.1-3.8,3.4-5.8c1.4-2,2.8-3.9,4.4-5.6
			c1.6-1.7,3.2-3.2,4.8-4.3c1.7-1.2,3.3-1.7,4.9-1.7c2.5,0,4.1,0.5,4.9,1.6c0.8,1.1,1.2,2.2,1.2,3.5c0,0.2-0.3,0.3-0.9,0.3
			c-0.5,0-1.1-0.1-1.8-0.2c-0.7-0.1-1.1-0.3-1.1-0.5c0-0.8-0.2-1.5-0.5-2.1s-1.1-1-2.2-1c-1,0-2.1,0.3-3.1,1s-2.2,1.5-3.2,2.6
			c-1.1,1.1-2.1,2.3-3.2,3.7s-2,2.9-3,4.5l14.7,24.6c0.4,0.6,0.8,1.2,1.3,1.6c0.5,0.4,1.1,0.6,1.9,0.6c0.1,0,0.3,0.1,0.5,0.2
			s0.3,0.3,0.3,0.4c0,0.3-0.1,0.5-0.3,0.7c-0.2,0.2-0.5,0.3-1.1,0.3h-6c-1.1,0-1.8-0.1-2.2-0.3c-0.4-0.2-0.6-0.4-0.6-0.7
			c0-0.1,0-0.2,0.1-0.4c0.1-0.1,0.2-0.2,0.4-0.2c0.7,0,1-0.2,1-0.5c0-0.3-0.2-0.9-0.6-1.7l-11.3-21.2c-1.2,2.4-2.1,4.6-2.8,6.8
			c-0.7,2.2-1,4.1-1,5.6v8.7c0,0.6,0.1,1.2,0.3,1.6c0.2,0.4,0.7,0.6,1.5,0.6c0.1,0,0.2,0.1,0.3,0.2c0,0.1,0.1,0.3,0.1,0.4
			c0,0.2-0.2,0.5-0.5,0.7c-0.3,0.2-0.8,0.3-1.3,0.3h-4.6c-0.3,0-0.6,0-0.8,0s-0.4,0-0.7,0h-4.6c-1.2,0-1.7-0.3-1.7-0.9
			c0-0.1,0-0.2,0.1-0.4c0-0.2,0.2-0.3,0.4-0.3c0.7,0,1.2-0.2,1.4-0.6C134,63,134.1,62.4,134.1,61.7z M139.9,63.3
			c0.2-0.4,0.4-0.9,0.4-1.7V27.3c0-0.2-0.1-0.6-0.3-1.2c-0.1-0.3-0.3-0.5-0.6-0.6c-0.6,0-1,0.3-1.2,0.6c-0.2,0.4-0.3,0.8-0.3,1.2
			v34.3c0,0.6,0.1,1.2,0.3,1.7c0.1,0.3,0.4,0.5,0.9,0.6C139.4,63.8,139.7,63.6,139.9,63.3z"/>
		<path d="M172.8,61.7V27.3c0-0.2-0.1-0.6-0.3-1.1c-0.2-0.5-0.6-0.7-1.1-0.7c-0.2,0-0.3-0.1-0.4-0.3c0-0.2-0.1-0.3-0.1-0.5
			c0-0.6,0.5-0.9,1.5-0.9h4.6h1.9h26.4c0.6,0,1.1,0.2,1.4,0.6l1.1,2.3c0,0.1,0.1,0.2,0.1,0.3c0,0.2-0.4,0.4-0.9,0.4h-0.6
			c-0.8,0-1.3-0.2-1.4-0.6c-0.1-0.5-0.6-0.8-1.2-1.1c-0.7-0.2-1.5-0.4-2.5-0.4h-16.9c-0.5,0-0.9,0.2-1,0.7c-0.1,0.5-0.2,0.9-0.2,1.3
			v6h22.4c0.7,0,1.2,0.2,1.4,0.6l0.9,1.6c0,0.1,0.1,0.2,0.1,0.3c0,0.2-0.4,0.4-0.9,0.4h-0.6c-0.8,0-1.3-0.2-1.4-0.6
			c-0.1-0.4-0.5-0.6-1.1-0.6c-0.6,0-1.4-0.1-2.4-0.1h-18.3v26.9c0,0.5,0.1,1,0.3,1.4c0.2,0.4,0.5,0.7,1,0.8h12.8
			c4.5,0,7-0.6,7.4-1.7c0.2-0.4,0.7-0.6,1.5-0.6h0.6c0.7,0,1.1,0.1,1.1,0.4c0,0.1,0,0.2-0.1,0.2l-0.9,2.5c-0.1,0.5-0.6,0.7-1.4,0.7
			h-26.6c-0.4,0-1.1,0-1.9,0h-4.6c-1.2,0-1.7-0.3-1.7-0.9c0-0.1,0-0.2,0.1-0.4c0-0.2,0.2-0.3,0.4-0.3c0.7,0,1.2-0.2,1.4-0.6
			C172.6,63,172.8,62.4,172.8,61.7z M178.9,63.3c0.2-0.4,0.4-0.9,0.4-1.7V27.3c0-0.2-0.1-0.6-0.3-1.1c-0.2-0.4-0.5-0.7-1-0.7
			c-0.5,0-0.9,0.3-1.1,0.6c-0.2,0.4-0.3,0.8-0.3,1.2v34.3c0,0.6,0.1,1.2,0.3,1.7c0.1,0.2,0.4,0.4,0.8,0.6
			C178.3,63.9,178.7,63.7,178.9,63.3z"/>
		<path d="M244.3,24.5l1.1,2.3c0,0.1,0.1,0.2,0.1,0.3c0,0.2-0.4,0.4-0.9,0.4h-0.6c-0.8,0-1.3-0.2-1.4-0.6c-0.1-0.5-0.6-0.8-1.2-1.1
			c-0.7-0.2-1.5-0.4-2.5-0.4h-4.5c-0.5,0-0.9,0.2-1,0.7c-0.1,0.4-0.2,0.8-0.2,1.2v34.3c0,0.6,0.1,1.2,0.3,1.7
			c0.2,0.4,0.7,0.6,1.5,0.6c0.1,0,0.2,0.1,0.3,0.3c0,0.1,0.1,0.2,0.1,0.3c0,0.2-0.2,0.5-0.5,0.7c-0.3,0.2-0.7,0.3-1.3,0.3h-4.6
			c-0.9,0-1.4,0-1.7,0h-4.6c-1.2,0-1.7-0.3-1.7-0.9c0-0.1,0-0.2,0.1-0.4c0-0.2,0.2-0.3,0.4-0.3c0.7,0,1.2-0.2,1.4-0.6
			c0.2-0.4,0.3-0.9,0.3-1.7V27.3c0-0.3-0.1-0.7-0.2-1.2c-0.1-0.5-0.5-0.8-1.1-0.8h-4.5c-1,0-1.8,0.1-2.5,0.4
			c-0.7,0.2-1.1,0.6-1.2,1.1c-0.1,0.4-0.6,0.6-1.4,0.6h-0.6c-0.6,0-0.9-0.1-0.9-0.4c0-0.1,0-0.2,0.1-0.3l1.1-2.3
			c0.3-0.4,0.8-0.6,1.4-0.6h29.8C243.4,23.9,243.9,24.1,244.3,24.5z M227.9,63.9c0.5,0,0.8-0.2,0.9-0.6c0.2-0.4,0.4-0.9,0.4-1.7
			V27.3c0-0.3-0.1-0.7-0.2-1.2c-0.1-0.5-0.5-0.8-1.1-0.8h-0.2c-0.4,0.1-0.7,0.3-0.8,0.7c-0.1,0.4-0.2,0.8-0.2,1.2v34.3
			c0,0.6,0.1,1.2,0.4,1.7C227.2,63.6,227.5,63.8,227.9,63.9z"/>
		<path d="M5.1,120.7V77.8c0-0.3-0.1-0.8-0.3-1.4c-0.2-0.6-0.6-0.9-1.1-0.9c-0.2,0-0.3-0.1-0.4-0.3c0-0.2-0.1-0.4-0.1-0.6
			c0-0.8,0.5-1.2,1.5-1.2h4.6h1.9h26.4c0.6,0,1.1,0.3,1.4,0.8l1.1,2.9c0,0.1,0.1,0.2,0.1,0.4c0,0.3-0.4,0.4-0.9,0.4h-0.6
			c-0.8,0-1.3-0.3-1.4-0.8c-0.1-0.6-0.6-1.1-1.2-1.4c-0.7-0.3-1.5-0.4-2.5-0.4H16.7c-0.5,0-0.9,0.3-1,0.9c-0.1,0.6-0.2,1.1-0.2,1.6
			v7.4h22.4c0.7,0,1.2,0.3,1.4,0.8l0.9,2c0,0.1,0.1,0.2,0.1,0.4c0,0.3-0.4,0.4-0.9,0.4h-0.6c-0.8,0-1.3-0.3-1.4-0.8
			c-0.1-0.5-0.5-0.8-1.1-0.8c-0.6-0.1-1.4-0.1-2.4-0.1H15.4v33.6c0,0.7,0.1,1.3,0.3,1.8c0.2,0.5,0.5,0.8,1,1h12.8c4.5,0,7-0.7,7.4-2
			c0.2-0.5,0.7-0.8,1.5-0.8h0.6c0.7,0,1.1,0.2,1.1,0.5c0,0.1,0,0.2-0.1,0.3l-0.9,3.2c-0.1,0.6-0.6,0.9-1.4,0.9H11.2
			c-0.4,0-1.1,0-1.9,0H4.7c-1.2,0-1.7-0.4-1.7-1.2c0-0.1,0-0.3,0.1-0.5c0-0.2,0.2-0.3,0.4-0.3c0.7,0,1.2-0.2,1.4-0.7
			C5,122.4,5.1,121.7,5.1,120.7z M11.3,122.8c0.2-0.5,0.4-1.2,0.4-2.1V77.8c0-0.3-0.1-0.8-0.3-1.4c-0.2-0.6-0.5-0.9-1-0.9
			c-0.5,0.1-0.9,0.4-1.1,0.8c-0.2,0.5-0.3,1-0.3,1.5v42.9c0,0.8,0.1,1.4,0.3,2c0.1,0.3,0.4,0.6,0.8,0.7
			C10.7,123.4,11.1,123.2,11.3,122.8z"/>
		<path d="M76.4,83.9h4c0.3,0,0.5,0.1,0.6,0.2c0,0.1,0.1,0.4,0.1,0.8c0,0.1-0.1,0.3-0.2,0.5c-0.1,0.2-0.3,0.3-0.5,0.3
			c-0.5,0-0.9,0.2-1.4,0.6c-0.4,0.4-0.8,0.8-1.1,1.2l-10.9,17.1l9.9,17.3c0.4,0.6,0.8,1.2,1.3,1.6c0.5,0.4,1.1,0.6,1.8,0.6
			c0.1,0,0.3,0.1,0.5,0.2c0.2,0.1,0.3,0.3,0.3,0.4c0,0.3-0.1,0.5-0.2,0.7c-0.1,0.2-0.5,0.3-1.1,0.3h-12c-1.2,0-1.7-0.3-1.7-0.9
			c0-0.1,0-0.2,0.1-0.4c0.1-0.2,0.1-0.3,0.2-0.3c0.7,0,1.1-0.2,1.1-0.6c0-0.4-0.2-0.9-0.6-1.7l-8.1-14.1l-9.1,14.2
			c-0.2,0.4-0.4,0.7-0.6,1c-0.1,0.3-0.2,0.6-0.2,0.8c0,0.3,0.2,0.4,0.6,0.4c0.1,0,0.2,0.1,0.2,0.3c0,0.2,0,0.3,0,0.4
			c0,0.3-0.2,0.5-0.5,0.6c-0.3,0.1-0.7,0.2-1.1,0.2h-3.9c-0.4,0-0.6-0.3-0.6-0.9c0-0.1,0.1-0.3,0.3-0.4c0.2-0.1,0.4-0.2,0.5-0.2
			c0.5,0,1-0.2,1.4-0.6c0.4-0.4,0.8-0.9,1.3-1.7L57,105.4L46.6,87.3c-0.1-0.2-0.4-0.6-0.9-1.1c-0.5-0.5-0.9-0.7-1.5-0.7
			c-0.2,0-0.4-0.1-0.6-0.3c-0.2-0.2-0.3-0.3-0.3-0.5c0-0.3,0-0.6,0.1-0.7c0.1-0.1,0.4-0.2,0.8-0.2h4.6c0.3,0,1,0,2,0h4.6
			c0.4,0,0.9,0.1,1.5,0.3c0.6,0.2,0.9,0.4,0.9,0.7c0,0.5-0.1,0.7-0.2,0.7c-0.7,0-1,0.3-1,0.9c0,0.2,0.1,0.6,0.4,0.9l8.6,14.9
			l9.6-14.9c0.1-0.1,0.2-0.4,0.4-0.7c0.1-0.3,0.2-0.6,0.2-0.8c0-0.2-0.1-0.3-0.3-0.3c-0.2,0-0.4-0.2-0.4-0.7c0-0.4,0.1-0.6,0.4-0.8
			C75.8,83.9,76.1,83.9,76.4,83.9z M60.3,104.4l9.9,17.3c0.4,0.6,0.8,1.2,1.2,1.7c0.4,0.3,0.9,0.5,1.5,0.6c0.5,0,0.7-0.2,0.7-0.6
			c0-0.4-0.2-0.9-0.6-1.7l-9.4-16.3L53.2,87.3c-0.1-0.2-0.5-0.6-0.9-1.1c-0.4-0.4-0.8-0.7-1.2-0.7c-0.7,0-1,0.3-1,0.9
			c0,0.2,0.1,0.6,0.4,0.9l8.6,14.9L60.3,104.4z"/>
		<path d="M84.6,121.7V87.3c0-0.2-0.1-0.6-0.3-1.1c-0.2-0.5-0.6-0.7-1.1-0.7c-0.2,0-0.3-0.1-0.4-0.3c0-0.2-0.1-0.3-0.1-0.5
			c0-0.6,0.5-0.9,1.5-0.9H89h1.9h13.5c3.6,0,6.8,0.4,9.4,1.3c2.6,0.9,4.7,2,6.4,3.5c1.7,1.4,2.9,3.1,3.7,5c0.8,1.9,1.2,4,1.2,6.3
			c0,4.5-2,7.9-5.9,10.4c-3.9,2.5-9.8,3.7-17.7,3.7c-2.2,0-4.3-0.4-6.4-1.2v8.7c0,0.6,0.1,1.2,0.3,1.6s0.7,0.6,1.5,0.6
			c0.1,0,0.2,0.1,0.3,0.2c0,0.1,0.1,0.3,0.1,0.4c0,0.2-0.2,0.5-0.5,0.7c-0.3,0.2-0.8,0.3-1.3,0.3h-4.6h-1.9h-4.6
			c-1.2,0-1.7-0.3-1.7-0.9c0-0.1,0-0.2,0.1-0.4c0-0.2,0.2-0.3,0.4-0.3c0.7,0,1.2-0.2,1.4-0.6C84.5,123,84.6,122.4,84.6,121.7z
			 M90.8,123.3c0.2-0.4,0.4-0.9,0.4-1.7V87.3c0-0.2-0.1-0.6-0.3-1.1c-0.2-0.4-0.5-0.7-0.9-0.7c-0.6,0-1,0.3-1.2,0.6
			c-0.2,0.4-0.3,0.8-0.3,1.2v34.3c0,0.6,0.1,1.2,0.3,1.7c0.2,0.3,0.6,0.5,1.1,0.6C90.3,123.9,90.7,123.7,90.8,123.3z M101.5,112.1
			c6.8,0,11.6-1,14.6-3.1c3-2.1,4.5-5.1,4.5-9.1c0-2-0.3-3.8-0.8-5.6c-0.5-1.8-1.4-3.3-2.7-4.6c-1.3-1.3-3-2.3-5.2-3.1
			c-2.2-0.8-4.9-1.2-8.2-1.2h-7.2c-0.5,0-0.9,0.2-1.1,0.6C95.1,86.6,95,87,95,87.3v24.2c0.8,0.3,1.7,0.5,2.7,0.5
			C98.7,112.1,100,112.1,101.5,112.1z"/>
		<path d="M129.8,121.7V87.3c0-0.2-0.1-0.6-0.3-1.1c-0.2-0.5-0.6-0.7-1.1-0.7c-0.2,0-0.3-0.1-0.4-0.3c0-0.2-0.1-0.3-0.1-0.5
			c0-0.6,0.5-0.9,1.5-0.9h4.6h2h13.5c3.6,0,6.8,0.4,9.4,1.3c2.6,0.9,4.7,2,6.4,3.5c1.7,1.4,2.9,3.1,3.7,5c0.8,1.9,1.2,4,1.2,6.3
			c0,2.7-0.7,5-2.2,7.1c-1.5,2-3.7,3.6-6.6,4.8l3.7,9.9c0.2,0.6,0.6,1.2,0.9,1.6c0.4,0.4,1,0.6,1.7,0.6c0.1,0,0.3,0.1,0.4,0.2
			c0.1,0.1,0.1,0.3,0.1,0.4c0,0.3-0.1,0.5-0.3,0.7c-0.2,0.2-0.5,0.3-1.1,0.3h-4.6c-0.6,0-1.1-0.1-1.5-0.3c-0.4-0.2-0.6-0.4-0.6-0.7
			c0-0.1,0-0.2,0-0.4c0-0.2,0.1-0.3,0.2-0.3c0.8,0,1.2-0.3,1.2-0.8c0-0.3-0.1-0.8-0.4-1.4l-3.3-8.8c-3.2,0.8-7,1.2-11.4,1.2
			c-2.2,0-4.3-0.4-6.4-1.2v8.7c0,0.6,0.1,1.2,0.3,1.6c0.2,0.4,0.7,0.6,1.5,0.6c0.1,0,0.2,0.1,0.3,0.2c0,0.1,0.1,0.3,0.1,0.4
			c0,0.2-0.2,0.5-0.5,0.7c-0.3,0.2-0.8,0.3-1.3,0.3H136h-2h-4.6c-1.2,0-1.7-0.3-1.7-0.9c0-0.1,0-0.2,0.1-0.4c0-0.2,0.2-0.3,0.4-0.3
			c0.7,0,1.2-0.2,1.4-0.6C129.7,123,129.8,122.4,129.8,121.7z M136.1,123.3c0.2-0.4,0.4-0.9,0.4-1.7V87.3c0-0.2-0.1-0.6-0.3-1.1
			c-0.2-0.4-0.5-0.7-0.9-0.7h-0.1H135c-0.5,0-0.9,0.3-1.1,0.6c-0.2,0.4-0.3,0.8-0.3,1.2v34.3c0,0.6,0.1,1.2,0.3,1.7
			c0.2,0.3,0.6,0.5,1.2,0.6C135.6,123.9,136,123.7,136.1,123.3z M146.8,112.1c6.8,0,11.6-1,14.6-3.1c3-2.1,4.5-5.1,4.5-9.1
			c0-2-0.3-3.8-0.8-5.6c-0.5-1.8-1.4-3.3-2.7-4.6c-1.3-1.3-3-2.3-5.2-3.1c-2.2-0.8-4.9-1.2-8.2-1.2h-7.2c-0.5,0-0.9,0.2-1.1,0.6
			c-0.2,0.4-0.3,0.8-0.3,1.2v24.2c0.8,0.3,1.7,0.5,2.7,0.5C144,112.1,145.3,112.1,146.8,112.1z"/>
		<path d="M174.3,121.7V87.3c0-0.2-0.1-0.6-0.3-1.1c-0.2-0.5-0.6-0.7-1.1-0.7c-0.2,0-0.3-0.1-0.4-0.3c0-0.2-0.1-0.3-0.1-0.5
			c0-0.6,0.5-0.9,1.5-0.9h4.6h1.9h26.4c0.6,0,1.1,0.2,1.4,0.6l1.1,2.3c0,0.1,0.1,0.2,0.1,0.3c0,0.2-0.4,0.4-0.9,0.4h-0.6
			c-0.8,0-1.3-0.2-1.4-0.6c-0.1-0.5-0.6-0.8-1.2-1.1c-0.7-0.2-1.5-0.4-2.5-0.4h-16.9c-0.5,0-0.9,0.2-1,0.7c-0.1,0.5-0.2,0.9-0.2,1.3
			v6H207c0.7,0,1.2,0.2,1.4,0.6l0.9,1.6c0,0.1,0.1,0.2,0.1,0.3c0,0.2-0.4,0.4-0.9,0.4h-0.6c-0.8,0-1.3-0.2-1.4-0.6
			c-0.1-0.4-0.5-0.6-1.1-0.6c-0.6,0-1.4-0.1-2.4-0.1h-18.3v26.9c0,0.5,0.1,1,0.3,1.4c0.2,0.4,0.5,0.7,1,0.8h12.8
			c4.5,0,7-0.6,7.4-1.7c0.2-0.4,0.7-0.6,1.5-0.6h0.6c0.7,0,1.1,0.1,1.1,0.4c0,0.1,0,0.2-0.1,0.2l-0.9,2.5c-0.1,0.5-0.6,0.7-1.4,0.7
			h-26.6c-0.4,0-1.1,0-1.9,0h-4.6c-1.2,0-1.7-0.3-1.7-0.9c0-0.1,0-0.2,0.1-0.4c0-0.2,0.2-0.3,0.4-0.3c0.7,0,1.2-0.2,1.4-0.6
			C174.2,123,174.3,122.4,174.3,121.7z M180.4,123.3c0.2-0.4,0.4-0.9,0.4-1.7V87.3c0-0.2-0.1-0.6-0.3-1.1c-0.2-0.4-0.5-0.7-1-0.7
			c-0.5,0-0.9,0.3-1.1,0.6c-0.2,0.4-0.3,0.8-0.3,1.2v34.3c0,0.6,0.1,1.2,0.3,1.7c0.1,0.2,0.4,0.4,0.8,0.6
			C179.8,123.9,180.2,123.7,180.4,123.3z"/>
		<path d="M224.7,100c-1.6,0-3.1-0.2-4.5-0.5c-1.4-0.3-2.6-0.8-3.6-1.5c-1-0.7-1.8-1.7-2.4-2.8c-0.6-1.2-0.9-2.6-0.9-4.3
			c0-2.6,0.9-4.5,2.7-5.8s4.2-1.9,7.1-1.9c1.6,0,3.2,0.1,4.8,0.3c0.3,0,0.7-0.1,1.1-0.1c1.7,0,3.4,0.1,5,0.3c1.7,0.2,3.4,0.3,5,0.3
			c0.3,0,0.6,0,0.9,0.1c0.3,0,0.6,0.2,0.6,0.4l1.2,2.7c0,0.1,0.1,0.2,0.1,0.4c0,0.3-0.2,0.4-0.6,0.4h-1.2c-0.4,0-0.7,0-1.1-0.1
			c-0.3-0.1-0.6-0.3-0.9-0.5c-1.1-1-2.3-1.6-3.7-1.9c-1.4-0.3-2.9-0.5-4.5-0.5c-0.5,0-1,0-1.4,0.1v0.1c-0.1,0-0.3-0.1-0.5-0.1
			c-0.1,0-0.3,0.1-0.5,0.1c-0.8,0.2-1.5,0.5-2.2,1c-0.6,0.5-1.1,1.2-1.5,2c-0.4,0.8-0.6,1.9-0.6,3.2c0,1.5,0.3,2.7,0.8,3.6
			c0.5,0.9,1.2,1.6,1.9,2.1c0.8,0.5,1.6,0.9,2.6,1.1c0.9,0.1,1.8,0.2,2.6,0.2h0.9c1.1-0.1,2.3-0.1,3.5-0.1c1.2,0,2.3,0.1,3.2,0.3
			c1.7,0,3.3,0.3,4.9,0.6c1.6,0.4,3.1,1.1,4.3,2.1c1.2,1,2.3,2.3,3,3.9s1.2,3.5,1.2,5.8c0,10.1-5.9,15.2-17.7,15.2
			c-1,0-1.9,0-2.8-0.1l0.1-0.4c-1.5,0.2-3.1,0.4-4.8,0.4c-3.6,0-6.7-0.6-9.1-1.7c-2.4-1.2-4.2-3.1-5.5-5.8c0,0,0-0.1-0.1-0.1v-0.1
			c0-0.3,0.2-0.5,0.6-0.7c0.4-0.2,0.7-0.3,1.1-0.3c0.5,0,0.9,0.2,1,0.6c1.1,2.4,2.7,4.2,4.9,5.2c2.2,1,4.6,1.4,7.2,1.4
			c4.2,0,7.4-1.2,9.5-3.5c2.2-2.4,3.2-5.5,3.2-9.5c0-1.1,0-2.3-0.1-3.6c-0.1-1.3-0.4-2.5-1-3.6c-0.6-1.1-1.5-2.1-2.8-2.8
			c-1.2-0.8-3-1.2-5.3-1.2c-0.9,0-1.8,0-2.6-0.1l-0.1,0.2C226.9,100.1,225.9,100,224.7,100z M222.8,84.7c-0.4,0-0.7,0.1-1.1,0.2
			c-0.8,0.2-1.5,0.5-2.2,1c-0.6,0.5-1.1,1.1-1.5,1.9c-0.4,0.9-0.6,1.9-0.6,3.2c0,1.5,0.3,2.7,0.8,3.6c0.5,0.9,1.1,1.6,1.9,2.2
			c0.5,0.3,1.1,0.6,1.7,0.8c-0.7-0.6-1.3-1.3-1.7-2.3c-0.6-1.2-0.9-2.6-0.9-4.3c0-2.6,0.9-4.5,2.7-5.8
			C222.2,85.1,222.5,84.9,222.8,84.7z M236.3,124.6c3.3-0.3,5.9-1.4,7.7-3.5c2.1-2.4,3.2-5.5,3.2-9.5c0-1.1,0-2.2-0.1-3.6
			c-0.1-1.3-0.4-2.5-1-3.7c-0.6-1.1-1.5-2.1-2.7-2.8c-1-0.6-2.3-0.9-3.8-1.1c0.3,0.2,0.7,0.5,1,0.7c1.2,1,2.3,2.3,3,3.9
			c0.8,1.6,1.2,3.5,1.2,5.8C244.7,117.8,241.9,122.4,236.3,124.6z"/>
		<path d="M267.3,100c-1.6,0-3.1-0.2-4.5-0.5c-1.4-0.3-2.6-0.8-3.6-1.5c-1-0.7-1.8-1.7-2.4-2.8c-0.6-1.2-0.9-2.6-0.9-4.3
			c0-2.6,0.9-4.5,2.7-5.8s4.2-1.9,7.1-1.9c1.6,0,3.2,0.1,4.8,0.3c0.3,0,0.7-0.1,1.1-0.1c1.7,0,3.4,0.1,5,0.3c1.7,0.2,3.4,0.3,5,0.3
			c0.3,0,0.6,0,0.9,0.1c0.3,0,0.6,0.2,0.6,0.4l1.2,2.7c0,0.1,0.1,0.2,0.1,0.4c0,0.3-0.2,0.4-0.6,0.4h-1.2c-0.4,0-0.7,0-1.1-0.1
			c-0.3-0.1-0.6-0.3-0.9-0.5c-1.1-1-2.3-1.6-3.7-1.9c-1.4-0.3-2.9-0.5-4.5-0.5c-0.5,0-1,0-1.4,0.1v0.1c-0.1,0-0.3-0.1-0.5-0.1
			c-0.1,0-0.3,0.1-0.5,0.1c-0.8,0.2-1.5,0.5-2.2,1c-0.6,0.5-1.1,1.2-1.5,2c-0.4,0.8-0.6,1.9-0.6,3.2c0,1.5,0.3,2.7,0.8,3.6
			c0.5,0.9,1.2,1.6,1.9,2.1c0.8,0.5,1.6,0.9,2.6,1.1c0.9,0.1,1.8,0.2,2.6,0.2h0.9c1.1-0.1,2.3-0.1,3.5-0.1c1.2,0,2.3,0.1,3.2,0.3
			c1.7,0,3.3,0.3,4.9,0.6c1.6,0.4,3.1,1.1,4.3,2.1c1.2,1,2.3,2.3,3,3.9s1.2,3.5,1.2,5.8c0,10.1-5.9,15.2-17.7,15.2
			c-1,0-1.9,0-2.8-0.1l0.1-0.4c-1.5,0.2-3.1,0.4-4.8,0.4c-3.6,0-6.7-0.6-9.1-1.7c-2.4-1.2-4.2-3.1-5.5-5.8c0,0,0-0.1-0.1-0.1v-0.1
			c0-0.3,0.2-0.5,0.6-0.7c0.4-0.2,0.7-0.3,1.1-0.3c0.5,0,0.9,0.2,1,0.6c1.1,2.4,2.7,4.2,4.9,5.2c2.2,1,4.6,1.4,7.2,1.4
			c4.2,0,7.4-1.2,9.5-3.5c2.2-2.4,3.2-5.5,3.2-9.5c0-1.1,0-2.3-0.1-3.6c-0.1-1.3-0.4-2.5-1-3.6c-0.6-1.1-1.5-2.1-2.8-2.8
			c-1.2-0.8-3-1.2-5.3-1.2c-0.9,0-1.8,0-2.6-0.1l-0.1,0.2C269.6,100.1,268.5,100,267.3,100z M265.4,84.7c-0.4,0-0.7,0.1-1.1,0.2
			c-0.8,0.2-1.5,0.5-2.2,1c-0.6,0.5-1.1,1.1-1.5,1.9c-0.4,0.9-0.6,1.9-0.6,3.2c0,1.5,0.3,2.7,0.8,3.6c0.5,0.9,1.1,1.6,1.9,2.2
			c0.5,0.3,1.1,0.6,1.7,0.8c-0.7-0.6-1.3-1.3-1.7-2.3c-0.6-1.2-0.9-2.6-0.9-4.3c0-2.6,0.9-4.5,2.7-5.8
			C264.8,85.1,265.1,84.9,265.4,84.7z M279,124.6c3.3-0.3,5.9-1.4,7.7-3.5c2.1-2.4,3.2-5.5,3.2-9.5c0-1.1,0-2.2-0.1-3.6
			c-0.1-1.3-0.4-2.5-1-3.7c-0.6-1.1-1.5-2.1-2.7-2.8c-1-0.6-2.3-0.9-3.8-1.1c0.3,0.2,0.7,0.5,1,0.7c1.2,1,2.3,2.3,3,3.9
			c0.8,1.6,1.2,3.5,1.2,5.8C287.3,117.8,284.5,122.4,279,124.6z"/>
	</g>
	<g>
	</g>
	<g>
	</g>
	<g>
	</g>
	<g>
	</g>
	<g>
	</g>
	<g>
	</g>
	<g>
	</g>
	<g>
	</g>
	<g>
	</g>
	<g>
	</g>
	<g>
	</g>
	<g>
	</g>
	<g>
	</g>
	<g>
	</g>
	<g>
	</g>
</g>
</svg>
