<?xml version="1.0" encoding="utf-8"?>
<!-- Generator: Adobe Illustrator 17.1.0, SVG Export Plug-In . SVG Version: 6.00 Build 0)  -->
<!DOCTYPE svg PUBLIC "-//W3C//DTD SVG 1.1//EN" "http://www.w3.org/Graphics/SVG/1.1/DTD/svg11.dtd">
<svg version="1.1" xmlns="http://www.w3.org/2000/svg" xmlns:xlink="http://www.w3.org/1999/xlink" x="0px" y="0px"
	 viewBox="0 0 120 120" enable-background="new 0 0 120 120" xml:space="preserve">
<g id="Layer_2">
	<rect x="-5" y="-5.8" fill="#FFFFFF" width="131" height="131"/>
</g>
<g id="Layer_1">
	<g>
		<path d="M25.3,55.3c-2.2,0-4.2-0.3-6-0.8c-1.8-0.5-3.4-1.4-4.8-2.5c-1.3-1.2-2.4-2.7-3.2-4.7c-0.8-2-1.2-4.4-1.2-7.2
			c0-4.4,1.2-7.6,3.6-9.7c2.4-2.2,5.6-3.3,9.5-3.3c2.1,0,4.2,0.2,6.3,0.5c0.4-0.1,0.9-0.1,1.4-0.1c2.2,0,4.5,0.2,6.7,0.5
			c2.2,0.3,4.5,0.5,6.7,0.5c0.4,0,0.8,0,1.2,0.1c0.4,0.1,0.7,0.3,0.9,0.7l1.5,4.6c0.1,0.1,0.1,0.3,0.1,0.6c0,0.5-0.3,0.8-0.9,0.8
			h-1.6c-0.5,0-1-0.1-1.4-0.2c-0.4-0.1-0.8-0.4-1.2-0.8c-1.4-1.6-3-2.7-4.9-3.3c-1.9-0.6-3.8-0.9-6-0.9c-0.6,0-1.3,0.1-1.9,0.2v0.3
			c-0.2-0.1-0.4-0.1-0.7-0.2c-0.2,0.1-0.4,0.1-0.7,0.2c-1.1,0.3-2,0.9-2.9,1.7c-0.8,0.8-1.5,1.9-2,3.3c-0.5,1.4-0.8,3.2-0.8,5.4
			c0,2.5,0.3,4.5,1,6c0.7,1.5,1.5,2.7,2.6,3.6c1.1,0.9,2.2,1.5,3.4,1.8c1.2,0.3,2.4,0.4,3.5,0.4h1.2c1.5-0.1,3-0.2,4.6-0.2
			c1.6,0,3,0.2,4.3,0.5c2.2,0.1,4.4,0.4,6.5,1.1c2.2,0.7,4.1,1.9,5.8,3.5c1.7,1.6,3,3.8,4,6.5c1,2.6,1.5,5.9,1.5,9.7
			C61.9,90.6,54,99,38.3,99c-1.3,0-2.5-0.1-3.7-0.2l0.2-0.7c-2,0.4-4.1,0.6-6.3,0.6c-4.9,0-8.9-0.9-12.2-2.8
			c-3.2-1.9-5.6-5.2-7.3-9.7c0-0.1,0-0.1-0.1-0.2v-0.2c0-0.4,0.3-0.8,0.8-1.2c0.5-0.3,1-0.5,1.4-0.5c0.7,0,1.2,0.3,1.3,0.9
			c1.5,4.1,3.6,7,6.5,8.6c2.9,1.6,6.1,2.4,9.6,2.4c5.6,0,9.9-2,12.7-5.9c2.9-3.9,4.3-9.2,4.3-15.8c0-1.8-0.1-3.8-0.2-6
			c-0.1-2.2-0.6-4.2-1.3-6.1c-0.8-1.9-2-3.5-3.7-4.8c-1.7-1.3-4-1.9-7.1-1.9c-1.2,0-2.4-0.1-3.5-0.2l-0.1,0.4
			C28.3,55.5,26.9,55.3,25.3,55.3z M22.8,30c-0.5,0.1-1,0.2-1.4,0.3c-1.1,0.3-2,0.9-2.9,1.7c-0.8,0.8-1.5,1.9-2,3.3
			c-0.5,1.4-0.8,3.2-0.8,5.4c0,2.5,0.3,4.5,1,6c0.7,1.5,1.5,2.7,2.5,3.6c0.7,0.6,1.4,1,2.2,1.3c-1-1-1.7-2.3-2.3-3.8
			c-0.8-2-1.2-4.4-1.2-7.2c0-4.4,1.2-7.6,3.6-9.7C22,30.5,22.4,30.3,22.8,30z M40.8,96.3c4.4-0.5,7.8-2.4,10.3-5.8
			c2.8-3.9,4.2-9.2,4.2-15.8c0-1.8-0.1-3.8-0.2-6c-0.1-2.2-0.6-4.2-1.3-6.1c-0.8-1.9-2-3.5-3.6-4.8c-1.3-1-3-1.6-5.1-1.8
			c0.4,0.4,0.9,0.8,1.3,1.2c1.7,1.6,3,3.7,4,6.4c1,2.6,1.5,5.9,1.5,9.7C52,85.1,48.3,92.7,40.8,96.3z"/>
		<path d="M105.6,28.6h5.4c0.4,0,0.7,0.1,0.8,0.3c0.1,0.2,0.1,0.6,0.1,1.2c0,0.3-0.1,0.5-0.3,0.8c-0.2,0.3-0.4,0.4-0.7,0.4
			c-0.6,0-1.2,0.3-1.8,1c-0.6,0.7-1.1,1.4-1.4,2.1L93.1,62.7l13.2,28.8c0.5,1,1.1,1.9,1.7,2.6c0.6,0.7,1.4,1.1,2.4,1.1
			c0.2,0,0.4,0.1,0.7,0.3c0.3,0.2,0.4,0.4,0.4,0.7c0,0.4-0.1,0.8-0.3,1.2c-0.2,0.3-0.7,0.5-1.4,0.5h-16c-1.5,0-2.3-0.5-2.3-1.4
			c0-0.2,0-0.4,0.1-0.7c0.1-0.3,0.2-0.4,0.2-0.4c1,0,1.4-0.3,1.4-1c0-0.7-0.3-1.6-0.9-2.8L81.6,68L69.4,91.6
			c-0.3,0.6-0.6,1.2-0.8,1.7c-0.2,0.5-0.3,0.9-0.3,1.2c0,0.5,0.3,0.8,0.8,0.8c0.1,0,0.2,0.1,0.2,0.4c0,0.3,0,0.5,0,0.7
			c0,0.4-0.2,0.8-0.7,1.1c-0.4,0.3-0.9,0.4-1.4,0.4h-5.2c-0.6,0-0.9-0.5-0.9-1.4c0-0.3,0.1-0.5,0.4-0.7c0.3-0.2,0.5-0.3,0.6-0.3
			c0.7,0,1.3-0.3,1.8-1c0.5-0.6,1.1-1.6,1.7-2.8l14-27.3L66,34.3c-0.2-0.4-0.6-1.1-1.2-1.9c-0.6-0.8-1.3-1.2-2-1.2
			c-0.3,0-0.5-0.1-0.8-0.4c-0.3-0.3-0.4-0.5-0.4-0.8c0-0.6,0.1-1,0.2-1.2c0.1-0.2,0.5-0.3,1.1-0.3h6.1c0.4,0,1.3,0,2.7,0h6.1
			c0.6,0,1.2,0.1,2,0.4c0.8,0.3,1.2,0.6,1.2,1.2c0,0.8-0.1,1.2-0.3,1.2c-0.9,0-1.3,0.5-1.3,1.4c0,0.4,0.2,1,0.5,1.6l11.4,24.8
			l12.8-24.8c0.1-0.3,0.3-0.7,0.5-1.2c0.2-0.5,0.3-1,0.3-1.4c0-0.3-0.1-0.5-0.4-0.5c-0.3,0-0.5-0.4-0.5-1.2c0-0.6,0.2-1.1,0.5-1.2
			C104.9,28.7,105.3,28.6,105.6,28.6z M84.2,62.7l13.2,28.8c0.5,1,1.1,1.9,1.6,2.7c0.5,0.6,1.2,0.9,2,1.1c0.6-0.1,1-0.4,1-1
			c0-0.7-0.3-1.6-0.9-2.8L88.7,64.4l-13.8-30c-0.2-0.4-0.6-1.1-1.2-1.8c-0.5-0.7-1.1-1.1-1.6-1.2c-0.9,0-1.3,0.5-1.3,1.4
			c0,0.4,0.2,1,0.5,1.6l11.4,24.8L84.2,62.7z"/>
	</g>
	<g>
	</g>
	<g>
	</g>
	<g>
	</g>
	<g>
	</g>
	<g>
	</g>
	<g>
	</g>
	<g>
	</g>
	<g>
	</g>
	<g>
	</g>
	<g>
	</g>
	<g>
	</g>
	<g>
	</g>
	<g>
	</g>
	<g>
	</g>
	<g>
	</g>
</g>
</svg>
